<?xml version="1.0" standalone="no"?>
<!DOCTYPE svg PUBLIC "-//W3C//DTD SVG 20010904//EN"
 "http://www.w3.org/TR/2001/REC-SVG-20010904/DTD/svg10.dtd">
<svg version="1.0" xmlns="http://www.w3.org/2000/svg"
 width="1920.000000pt" height="1920.000000pt" viewBox="0 0 1920.000000 1920.000000"
 preserveAspectRatio="xMidYMid meet">
<metadata>
Created by potrace 1.16, written by Peter Selinger 2001-2019
</metadata>
<g transform="translate(0.000000,1920.000000) scale(0.100000,-0.100000)"
fill="#000000" stroke="none">
<path d="M11355 18793 c-829 -49 -1438 -150 -2165 -358 -720 -207 -1626 -572
-2470 -994 -1028 -515 -2092 -1223 -2990 -1990 -545 -465 -1173 -1111 -1686
-1736 -588 -716 -938 -1241 -1139 -1710 -89 -208 -237 -679 -289 -925 -60
-279 -76 -579 -42 -800 124 -810 706 -1444 1794 -1955 218 -102 334 -148 509
-200 116 -34 118 -34 137 -15 19 18 18 20 -39 117 -32 54 -59 100 -61 102 -2
2 -35 -10 -75 -28 l-71 -32 -99 80 c-55 44 -100 83 -100 87 0 4 32 17 72 30
39 12 76 27 81 32 8 8 -32 195 -44 207 -2 2 -28 0 -58 -3 l-55 -7 -3 -92 c-1
-51 -6 -93 -11 -93 -24 0 -201 93 -205 108 -12 40 -56 285 -52 289 3 4 314 52
339 53 4 0 7 31 7 69 l0 68 -46 7 c-99 13 -126 9 -164 -28 -28 -27 -57 -41
-140 -65 -57 -16 -106 -29 -107 -27 -5 5 -6 456 -1 461 4 5 163 25 195 25 18
0 29 -14 57 -75 l35 -75 55 0 c30 0 57 3 59 8 2 4 -5 90 -17 191 -23 200 -22
199 -87 200 -26 1 -26 1 -39 -119 -7 -66 -17 -120 -22 -120 -5 0 -56 12 -113
26 l-105 26 -39 -35 c-46 -42 -97 -54 -151 -38 -52 15 -87 45 -100 87 -24 70
38 164 108 164 53 0 102 -48 102 -99 0 -10 -9 -30 -21 -45 -24 -30 -64 -35
-95 -11 -18 15 -17 16 12 10 52 -10 83 35 48 69 -30 31 -74 13 -89 -35 -11
-34 35 -74 86 -74 85 0 121 101 59 164 -74 74 -200 39 -247 -69 -9 -21 -18
-89 -23 -175 -13 -212 -26 -223 -22 -18 4 203 14 244 71 296 43 39 116 62 165
53 19 -4 51 -18 71 -32 21 -14 38 -24 40 -22 1 2 6 78 11 170 5 92 12 170 16
173 6 7 199 -33 216 -44 5 -3 15 -33 23 -66 l14 -60 55 -7 c30 -3 56 -5 58 -4
6 7 62 281 60 294 -2 12 -72 41 -99 42 -3 0 -23 -43 -43 -95 -21 -52 -43 -95
-49 -95 -14 0 -207 57 -212 62 -5 5 90 537 97 544 7 6 162 24 216 24 l42 0 0
-72 c0 -40 3 -90 6 -110 l7 -38 58 0 c45 0 60 4 67 18 5 9 30 100 56 200 26
101 50 190 53 198 5 13 -4 14 -58 8 -35 -4 -66 -8 -68 -10 -2 -2 -14 -34 -26
-71 -27 -79 -32 -82 -191 -110 -86 -15 -94 -15 -118 1 -31 20 -33 44 -6 96 19
36 94 259 140 415 l21 71 117 17 c167 24 153 33 126 -80 -13 -54 -24 -105 -24
-114 0 -13 17 -18 81 -26 44 -5 82 -6 84 -3 11 18 215 491 215 498 0 5 -11 14
-25 20 -25 12 -26 10 -75 -93 l-49 -105 -160 0 c-102 0 -161 4 -161 10 0 8
265 547 274 557 2 2 249 -59 254 -62 2 -2 -5 -32 -14 -69 -10 -36 -16 -68 -13
-71 3 -3 32 -8 65 -11 l59 -5 118 222 c125 235 126 239 62 239 -24 0 -46 -16
-112 -82 l-82 -82 -118 12 c-64 7 -119 14 -121 16 -3 4 309 478 328 499 7 8
80 -3 236 -34 l51 -10 -33 -62 c-18 -34 -34 -65 -34 -68 0 -5 45 -29 55 -29 6
0 355 436 355 443 0 11 -92 58 -104 54 -6 -3 -47 -57 -90 -120 l-78 -115 -97
45 c-53 25 -100 49 -104 53 -7 6 331 405 439 519 11 12 25 6 93 -39 45 -29 81
-57 81 -62 0 -5 -14 -35 -30 -68 l-30 -60 50 -25 c27 -14 55 -25 62 -24 11 0
264 278 337 370 l24 30 -36 36 -36 36 -68 -59 c-37 -32 -91 -80 -120 -106
l-52 -47 -105 35 c-59 20 -106 39 -106 43 0 10 580 535 595 539 9 2 151 -74
172 -92 1 -1 -36 -46 -82 -101 -47 -55 -85 -104 -85 -110 1 -5 13 -25 28 -43
l27 -32 150 142 c370 350 369 349 351 366 -15 15 -26 11 -145 -51 -70 -37
-132 -67 -138 -67 -9 0 -96 121 -107 150 -5 11 78 84 283 253 160 130 295 237
300 237 6 0 36 -39 67 -87 31 -49 61 -93 65 -98 5 -7 -21 -33 -66 -69 -63 -49
-73 -61 -65 -77 6 -10 14 -20 19 -24 8 -4 536 281 564 305 10 9 -13 60 -27 60
-6 0 -76 -36 -155 -80 -79 -44 -147 -80 -150 -80 -7 0 -123 221 -119 225 2 1
151 90 332 198 l329 196 89 -82 c102 -93 104 -81 -22 -148 -41 -22 -84 -47
-95 -55 -19 -14 -19 -15 -1 -49 11 -19 23 -35 29 -35 18 0 557 333 557 344 0
6 -7 19 -15 30 -13 17 -21 15 -164 -58 -83 -41 -152 -72 -155 -68 -8 14 -68
223 -65 226 17 15 516 294 617 345 91 47 102 46 145 -12 22 -28 87 -149 87
-161 0 -2 -52 -42 -115 -88 -109 -79 -115 -85 -115 -119 0 -20 3 -38 6 -41 5
-5 91 34 538 246 l118 56 -20 32 c-12 18 -28 34 -37 36 -9 2 -56 -8 -106 -22
-49 -14 -94 -26 -98 -26 -15 0 -140 198 -128 203 7 3 180 75 386 161 205 86
377 154 381 151 8 -5 80 -152 80 -164 0 -3 -52 -37 -115 -75 -64 -38 -118 -72
-121 -77 -4 -6 33 -99 40 -99 1 0 40 16 86 36 47 19 211 85 365 146 154 60
284 113 288 117 9 9 -22 81 -36 81 -5 0 -45 -16 -90 -36 -45 -20 -101 -45
-124 -55 l-43 -18 -65 91 c-36 50 -65 94 -65 99 0 9 568 294 672 337 104 43
121 42 151 -10 30 -52 71 -174 64 -191 -2 -7 -71 -43 -153 -81 -82 -38 -152
-72 -156 -75 -4 -4 -2 -25 4 -49 13 -52 24 -53 147 -16 98 30 634 214 641 221
3 3 -40 90 -55 111 -1 1 -71 -13 -155 -33 -85 -19 -154 -34 -155 -32 -9 11
-86 260 -83 268 2 7 130 40 283 74 351 79 482 112 516 132 33 20 59 11 59 -19
0 -13 13 -72 30 -132 16 -61 28 -111 27 -112 -1 -2 -70 -17 -152 -35 -83 -18
-152 -34 -154 -35 -5 -5 40 -114 48 -114 3 0 165 35 360 77 l353 77 -6 59 c-3
32 -8 63 -12 68 -8 14 -35 11 -194 -16 -80 -13 -148 -25 -153 -25 -4 0 -6 66
-5 147 l3 147 369 79 c202 43 370 76 373 74 2 -3 9 -38 14 -79 5 -40 11 -89
14 -109 l5 -36 -111 -48 c-122 -53 -112 -39 -93 -135 7 -38 2 -38 344 3 l265
33 3 88 3 88 -78 -6 c-43 -4 -108 -9 -144 -12 l-67 -6 -31 63 c-37 74 -39 102
-8 133 30 30 99 35 487 39 l275 2 12 -90 c6 -49 12 -102 12 -117 l1 -28 -131
0 -130 0 3 -37 3 -38 293 -3 292 -2 0 40 c0 51 -20 60 -126 60 -86 0 -81 -15
-56 150 l18 115 337 3 338 2 -3 -102 -3 -102 -30 -7 c-16 -4 -65 -15 -108 -24
-81 -18 -89 -25 -101 -81 -5 -24 -3 -33 9 -38 27 -10 556 -69 561 -62 1 0 4
29 7 62 8 73 14 69 -126 80 -48 4 -89 10 -91 13 -4 8 20 301 25 306 6 5 728
-70 735 -77 5 -5 -36 -236 -52 -290 -4 -15 -21 -18 -106 -20 l-101 -3 -13 -45
c-7 -25 -10 -47 -6 -51 4 -3 104 -14 222 -23 118 -9 225 -19 238 -22 24 -5 32
9 46 72 l7 32 -73 11 c-40 7 -83 14 -94 16 l-22 5 25 107 c14 60 28 111 32
115 8 9 632 -62 645 -73 11 -10 -34 -309 -47 -309 -5 0 -56 14 -114 31 -57 17
-107 29 -109 26 -3 -3 -12 -26 -19 -51 -13 -41 -12 -47 3 -55 49 -25 404 -162
413 -159 7 2 20 24 30 48 l17 45 -55 57 -55 56 21 63 c11 35 21 80 21 101 0
46 31 69 58 45 21 -18 332 -106 575 -161 l27 -6 -44 -89 c-58 -114 -89 -151
-128 -151 -16 0 -66 9 -110 21 -44 11 -86 18 -92 16 -12 -5 -53 -124 -45 -131
10 -10 375 -186 386 -186 11 0 103 108 103 122 0 3 -43 23 -95 44 -59 23 -92
41 -88 48 4 6 52 64 107 128 l100 118 37 -23 c213 -129 488 -304 489 -310 0
-5 -48 -62 -106 -128 l-106 -118 -70 35 -69 35 -39 -33 c-21 -18 -37 -37 -36
-43 1 -5 67 -56 145 -112 l143 -102 42 21 c22 11 43 22 44 23 2 2 -15 28 -38
59 -27 35 -39 60 -34 68 20 32 187 243 194 246 5 2 92 -65 194 -149 l185 -152
-25 -31 c-15 -17 -69 -77 -121 -134 l-95 -102 -49 36 c-47 34 -51 35 -72 20
-65 -45 -71 -32 78 -178 75 -73 140 -134 144 -136 8 -3 101 47 101 55 0 2 -33
40 -72 84 -40 44 -74 83 -75 87 -3 8 230 182 244 182 5 0 58 -56 118 -124 61
-69 112 -125 115 -125 3 -1 14 15 25 36 48 87 194 99 249 21 33 -46 12 -153
-33 -178 -78 -41 -180 38 -141 110 11 21 56 38 85 32 16 -4 13 -7 -15 -16 -30
-9 -35 -16 -35 -41 0 -23 6 -32 28 -39 21 -8 31 -6 41 5 23 23 29 62 12 84
-19 27 -95 28 -124 1 -25 -21 -38 -74 -24 -88 6 -6 8 -16 6 -23 -7 -18 41 -53
82 -61 53 -10 123 30 152 86 30 58 26 119 -16 222 -29 72 -68 226 -59 235 3 2
12 -26 21 -63 9 -37 37 -111 61 -164 38 -82 45 -107 45 -159 0 -77 -25 -130
-81 -171 -50 -36 -96 -46 -151 -32 -23 6 -44 9 -46 8 -2 -2 47 -92 109 -200
61 -108 110 -198 108 -200 -2 -2 -46 -31 -98 -66 l-93 -62 -49 48 c-53 52 -49
53 -123 -8 l-29 -24 92 -138 92 -137 29 18 c17 9 30 20 30 23 0 3 -11 44 -25
90 -13 47 -21 88 -17 92 9 8 214 69 218 65 2 -2 41 -84 88 -183 50 -106 81
-183 75 -188 -4 -5 -48 -31 -96 -58 l-88 -48 93 0 92 0 0 -35 c0 -22 -6 -37
-17 -44 -14 -8 -15 -12 -4 -25 18 -22 6 -46 -23 -46 -22 0 -24 4 -23 38 l2 37
-52 3 c-60 3 -55 11 -73 -122 -6 -44 -12 -81 -14 -84 -2 -2 -30 -12 -63 -22
l-58 -18 61 -1 61 -1 12 -62 c18 -95 18 -95 69 -109 26 -7 49 -12 51 -11 2 1
4 67 4 147 -1 104 3 145 11 142 6 -2 11 -18 11 -35 1 -18 10 -41 23 -55 20
-22 22 -33 22 -155 0 -84 -4 -132 -10 -132 -12 0 -212 59 -217 63 -1 2 -9 32
-16 68 l-13 64 -47 3 -47 3 2 -198 3 -198 32 -3 31 -3 7 90 8 91 96 0 96 0 -3
-171 c-3 -170 -3 -172 21 -198 34 -37 47 -65 47 -103 -1 -68 -55 -118 -127
-118 -34 0 -46 5 -67 31 -15 18 -26 43 -26 60 0 19 -5 29 -15 29 -24 0 -28
-24 -11 -63 36 -87 156 -108 236 -41 39 33 52 60 94 186 29 87 80 198 91 198
2 0 -10 -31 -26 -68 -16 -38 -38 -108 -49 -156 -11 -48 -29 -104 -39 -124 -39
-76 -113 -122 -195 -122 l-44 0 -41 -82 c-44 -91 -159 -290 -173 -299 -14 -9
-199 -42 -205 -36 -3 3 4 34 16 68 25 75 25 79 6 79 -23 0 -211 -380 -193
-391 34 -22 45 -9 72 84 15 52 31 99 36 106 5 9 40 -4 131 -49 68 -34 125 -63
127 -65 1 -1 -9 -39 -23 -84 -23 -72 -30 -84 -56 -93 -20 -7 -35 -22 -44 -46
-30 -71 -24 -22 10 78 19 57 35 105 35 107 0 1 -31 19 -70 38 l-69 35 -32
-105 c-18 -58 -36 -105 -41 -105 -5 0 -42 14 -84 32 -44 18 -78 27 -83 22 -16
-17 -50 -104 -42 -108 4 -3 39 -12 79 -21 75 -17 75 -17 87 -88 l6 -39 42 7
c104 16 105 16 111 41 4 14 11 22 16 19 16 -10 12 -43 -6 -53 -14 -8 -14 -11
6 -30 l22 -20 -74 -12 c-40 -6 -94 -15 -121 -19 -26 -5 -49 -6 -51 -2 -2 3 -7
32 -11 63 -7 57 -8 58 -47 69 -22 5 -41 9 -43 7 -1 -2 -34 -81 -73 -176 -70
-170 -70 -173 -49 -182 28 -10 38 2 73 92 15 37 30 68 35 68 21 0 234 -90 232
-98 -1 -6 -55 -110 -118 -231 l-116 -222 21 -26 c35 -45 22 -93 -31 -112 -34
-12 -62 -3 -78 27 -5 9 -13 14 -16 10 -4 -4 4 -18 18 -32 19 -19 37 -26 64
-26 34 0 45 8 111 78 41 42 68 68 61 57 -87 -127 -120 -155 -184 -155 -47 0
-80 23 -98 68 -13 32 -24 41 -76 61 -34 13 -61 28 -61 33 0 5 11 50 26 100 26
94 26 122 -2 116 -13 -3 -294 -518 -294 -540 0 -5 15 -8 34 -8 33 0 37 4 91
95 31 52 60 97 65 100 13 8 200 18 200 11 0 -4 -68 -108 -151 -231 -145 -216
-152 -225 -192 -236 -23 -6 -80 -21 -126 -35 -47 -13 -86 -22 -89 -20 -2 3 10
30 28 61 33 58 34 77 2 94 -17 9 -36 -12 -167 -180 -149 -193 -157 -208 -104
-209 12 0 164 154 186 189 4 6 184 -72 181 -79 -2 -4 -124 -141 -272 -303
l-269 -296 -68 52 c-37 29 -68 54 -68 57 -1 3 28 41 64 84 66 78 74 98 41 104
-16 3 -346 -194 -346 -207 0 -3 9 -12 20 -18 14 -9 33 -10 71 -3 82 16 82 15
117 -55 18 -36 32 -69 32 -73 0 -5 -63 -59 -140 -121 l-139 -112 -75 38 -75
38 44 75 c42 70 56 106 38 98 -5 -1 -56 -36 -115 -75 l-107 -73 6 -37 c3 -21
13 -49 23 -63 26 -38 33 -84 25 -166 l-7 -74 -86 0 -87 0 -51 57 -51 58 -42
-29 c-22 -16 -41 -31 -41 -35 0 -3 9 -20 20 -38 l19 -32 -77 -130 c-42 -72
-79 -131 -82 -131 -3 0 -22 34 -43 75 -20 41 -41 75 -46 75 -11 0 -203 -163
-240 -204 l-25 -26 -23 22 -23 22 42 44 c42 43 283 252 290 252 3 0 17 -27 33
-60 16 -33 32 -60 36 -60 4 0 24 27 44 60 l36 59 -26 45 -26 45 101 78 c56 43
118 89 137 103 l35 25 19 -24 20 -24 -37 -38 c-39 -40 -39 -41 5 -96 22 -28
32 -33 69 -33 l42 0 0 54 c0 38 -7 66 -21 90 -12 21 -23 62 -26 96 -3 33 -8
60 -10 60 -2 0 -54 -42 -116 -94 -407 -339 -874 -670 -1346 -952 -110 -65
-196 -120 -192 -122 12 -4 580 190 771 263 515 199 963 419 1410 693 766 470
1455 1048 1994 1672 27 32 37 39 34 23 -4 -16 0 -23 16 -27 33 -9 35 -8 53 31
21 43 35 50 56 28 22 -22 29 -6 34 79 5 91 22 130 104 241 36 50 85 119 109
155 24 36 52 74 62 84 10 11 18 26 18 33 0 7 8 13 18 13 21 0 62 -39 62 -59 0
-19 24 -7 28 14 3 11 0 15 -7 11 -12 -8 -28 21 -18 31 4 3 18 -2 31 -11 32
-20 36 -20 36 2 0 13 -9 18 -40 18 -48 2 -57 8 -41 28 10 11 9 16 -5 24 -10 5
-12 12 -6 16 5 3 12 -1 16 -9 7 -20 66 -20 66 -1 0 21 -21 31 -31 15 -6 -9 -9
-10 -9 -2 0 6 -6 13 -14 15 -10 2 12 44 70 137 255 406 428 812 518 1212 27
121 69 378 69 417 -1 12 3 22 7 22 13 0 40 -48 40 -70 0 -23 35 -28 43 -6 6
14 -15 40 -24 31 -3 -2 -5 5 -5 16 0 18 5 20 36 14 19 -4 43 -14 52 -22 18
-16 38 -10 38 11 0 9 -14 13 -40 13 -45 0 -56 6 -45 23 4 7 18 9 31 6 19 -5
24 -2 24 14 0 20 -24 28 -34 11 -7 -11 -80 -23 -99 -15 -13 5 -15 33 -10 202
12 410 -43 812 -171 1257 -102 355 -204 621 -351 910 -333 657 -757 1165
-1329 1590 -362 269 -779 491 -1367 725 -672 269 -1457 429 -2343 480 -158 9
-729 11 -861 3z m-454 -251 c143 -64 220 -258 174 -437 -30 -114 -74 -177
-223 -320 -45 -43 -65 -56 -73 -48 -8 8 12 36 75 104 97 103 125 146 155 236
34 103 22 215 -34 303 -85 134 -249 147 -321 24 -60 -102 -26 -237 72 -284 81
-40 142 0 152 100 7 75 -26 120 -88 120 -26 0 -70 -56 -70 -89 0 -34 33 -78
69 -93 20 -9 22 -12 9 -15 -35 -9 -90 29 -110 74 -26 59 -16 107 32 156 33 32
44 37 85 37 124 0 194 -103 166 -242 -28 -134 -130 -200 -253 -164 -113 33
-191 140 -191 264 -1 144 71 253 193 293 39 13 133 3 181 -19z m446 -84 c-5
-97 -18 -165 -53 -288 -5 -15 22 11 70 67 123 147 305 268 461 308 171 43 377
-6 504 -121 51 -46 121 -141 121 -164 0 -5 -17 -10 -37 -10 -34 0 -41 5 -66
45 -112 176 -373 252 -582 170 -104 -41 -219 -112 -295 -182 -75 -69 -402
-470 -373 -458 79 35 242 56 288 39 43 -17 -166 -123 -294 -150 -37 -7 -84
-20 -104 -29 -41 -17 -97 -20 -97 -6 0 6 8 16 18 23 19 14 98 147 130 220 11
26 30 82 41 125 43 158 140 362 225 470 22 29 43 53 45 53 2 0 1 -51 -2 -112z
m772 -181 c41 -27 107 -115 95 -126 -4 -3 -9 0 -11 7 -6 17 -38 15 -53 -3 -10
-12 -17 -9 -46 20 -53 53 -137 59 -236 16 -166 -71 -218 -245 -128 -428 93
-188 309 -228 506 -92 l45 30 35 -22 36 -22 -39 -39 c-21 -21 -68 -54 -105
-73 -184 -92 -376 -67 -501 64 -199 209 -165 532 68 654 72 37 117 47 206 44
75 -2 91 -5 128 -30z m2298 -74 c63 -29 106 -79 134 -153 27 -71 22 -188 -11
-273 -29 -77 -127 -182 -210 -226 -59 -32 -280 -111 -308 -111 -38 0 6 27 118
74 167 70 177 76 244 142 77 75 109 145 114 246 4 66 0 85 -21 132 -35 75 -89
111 -168 111 -49 0 -63 -4 -96 -31 -110 -89 -119 -251 -17 -315 44 -27 68 -24
109 12 66 58 81 115 44 163 -28 35 -80 36 -114 1 -32 -31 -34 -91 -5 -128 27
-34 25 -41 -6 -21 -79 53 -69 181 19 229 78 42 184 -9 208 -99 29 -107 -58
-246 -173 -277 -88 -23 -191 39 -239 145 -46 101 -10 247 83 332 55 51 76 63
131 73 56 12 101 4 164 -26z m-2227 -241 c0 -86 -1 -89 -32 -119 -64 -62 -158
-88 -225 -62 -37 14 -81 56 -103 99 -22 44 -38 136 -21 126 6 -4 11 -16 11
-28 0 -35 52 -117 88 -140 104 -64 248 33 254 172 1 26 6 40 15 40 10 0 13
-21 13 -88z m2689 -73 c-40 -77 -88 -146 -159 -231 l-31 -37 86 40 c141 65
242 90 387 96 212 10 332 -32 465 -163 122 -120 177 -272 154 -424 -20 -130
-77 -253 -147 -321 -31 -30 -33 -31 -55 -15 -13 9 -27 16 -31 16 -4 0 -23 -24
-42 -54 -34 -53 -64 -78 -89 -75 -25 3 -37 -1 -37 -15 0 -19 -32 -26 -127 -26
-139 0 -253 47 -336 140 -132 147 -127 419 9 570 82 90 173 125 306 118 151
-9 246 -70 284 -183 32 -92 -4 -224 -78 -291 -63 -57 -118 -77 -198 -72 -76 4
-126 33 -157 91 -22 41 -23 149 -2 197 15 35 16 34 12 -50 -5 -97 10 -134 69
-170 92 -56 238 16 273 134 19 65 19 92 -4 142 -32 70 -102 104 -213 104 -164
0 -275 -113 -286 -291 -9 -150 51 -256 178 -313 157 -71 340 -29 465 106 94
101 141 232 133 364 -11 167 -149 340 -321 400 -123 44 -330 37 -487 -16 -47
-15 -166 -68 -265 -116 -99 -48 -202 -98 -230 -110 l-50 -22 50 -7 c119 -16
268 -76 245 -99 -16 -16 -286 -14 -329 2 -19 7 -65 15 -102 18 -47 5 -70 11
-74 22 -3 8 -4 16 -3 16 2 1 44 29 93 61 87 58 121 88 292 267 44 47 110 107
144 134 76 58 217 144 236 144 10 0 1 -26 -28 -81z m-3314 -271 c100 -52 157
-140 163 -251 4 -60 1 -75 -27 -132 -56 -114 -161 -164 -275 -131 -147 43
-216 194 -152 333 47 100 154 136 252 85 67 -34 94 -74 94 -136 0 -65 -28
-113 -84 -140 -67 -33 -141 4 -152 75 -6 35 9 89 24 89 4 0 6 -17 4 -37 -3
-28 2 -44 18 -60 27 -30 55 -29 85 2 50 49 21 113 -55 122 -39 4 -48 1 -69
-21 -31 -33 -40 -110 -17 -154 38 -73 138 -100 204 -54 52 38 77 88 77 157 -1
124 -84 212 -219 233 -61 10 -110 4 -254 -29 -79 -18 -95 -20 -103 -8 -6 11
10 19 74 36 45 13 105 30 132 38 80 24 217 15 280 -17z m-3341 -164 c115 -30
214 -97 290 -197 32 -42 28 -53 -20 -63 -27 -5 -33 -1 -57 33 -52 73 -154 141
-247 162 -73 17 -199 13 -284 -9 -107 -27 -188 -73 -274 -154 -159 -151 -231
-281 -317 -571 -31 -104 -68 -224 -81 -265 l-24 -74 38 35 c20 20 54 48 74 63
37 28 189 98 196 91 17 -17 -116 -173 -206 -242 -131 -99 -224 -200 -293 -320
-79 -138 -82 -143 -91 -143 -4 0 7 24 24 53 48 81 157 307 156 326 0 9 5 64
12 122 12 92 11 122 -3 230 -21 151 -21 262 -2 394 14 98 41 205 51 205 9 0
54 -111 79 -195 13 -45 27 -115 31 -156 l7 -74 32 100 c43 132 75 203 129 283
133 200 278 313 466 361 93 25 230 27 314 5z m6016 -258 c52 -13 138 -31 191
-39 163 -24 263 -86 315 -194 37 -74 39 -186 6 -249 -33 -64 -68 -100 -124
-128 -104 -52 -227 -26 -295 63 -103 134 -41 330 119 372 39 11 52 10 92 -5
53 -20 121 -92 131 -137 24 -106 -77 -209 -176 -180 -71 21 -102 102 -62 161
35 52 58 54 32 3 -29 -57 -6 -103 52 -103 31 0 69 40 69 72 0 29 -63 88 -94
88 -60 0 -121 -97 -105 -169 9 -40 64 -97 104 -107 64 -16 157 33 191 102 27
55 25 155 -3 210 -47 90 -122 133 -300 173 -129 29 -260 73 -278 93 -7 8 -3 9
15 4 14 -3 68 -17 120 -30z m-6067 -10 c88 -51 147 -148 147 -240 0 -175 -171
-312 -314 -252 -42 17 -103 71 -122 107 -23 46 -16 45 23 -1 80 -93 197 -106
277 -32 85 80 88 233 4 308 -92 85 -210 69 -326 -44 -65 -63 -93 -120 -100
-199 -4 -56 -1 -70 27 -128 48 -98 146 -171 260 -196 137 -29 333 69 416 209
28 46 33 50 75 55 25 3 47 3 49 1 3 -2 -9 -32 -25 -67 -41 -88 -167 -214 -254
-255 -153 -72 -299 -69 -435 8 -55 32 -140 116 -173 171 -34 56 -55 155 -48
219 7 62 50 157 96 213 41 48 143 120 200 141 66 24 166 16 223 -18z m-1328
-307 c76 -28 166 -112 205 -193 38 -76 49 -182 31 -277 -7 -34 -40 -123 -72
-197 -33 -75 -72 -176 -85 -226 -14 -50 -29 -100 -34 -111 -7 -17 -9 -15 -9
11 -1 49 43 209 92 335 56 143 71 215 63 295 -9 91 -32 148 -82 203 -60 67
-140 106 -214 105 -96 -2 -166 -44 -201 -119 -58 -125 38 -274 178 -275 90 0
133 37 133 115 0 64 -31 115 -77 129 -95 27 -162 -94 -86 -154 17 -13 41 -20
71 -20 53 0 47 -17 -9 -26 -77 -13 -149 50 -149 129 0 92 64 152 160 151 97 0
157 -51 184 -158 44 -166 -68 -288 -250 -273 -162 13 -275 152 -261 323 15
188 221 305 412 233z m1095 -553 c99 -50 148 -117 157 -215 19 -208 -201 -358
-388 -263 -161 82 -170 312 -14 383 50 23 154 25 195 4 66 -34 97 -130 63
-194 -28 -53 -66 -76 -125 -76 -43 0 -53 4 -79 33 -20 22 -29 43 -29 67 0 19
5 35 10 35 6 0 10 -8 10 -19 0 -10 9 -30 21 -45 55 -70 162 14 119 94 -23 44
-131 33 -170 -17 -25 -32 -25 -66 -1 -120 24 -52 63 -73 133 -73 72 0 126 31
156 90 70 139 -43 290 -217 290 -99 0 -184 -36 -302 -125 -115 -88 -349 -218
-365 -202 -2 2 24 19 58 37 90 48 170 103 272 187 49 41 109 85 133 100 119
70 259 81 363 29z m9200 -421 c82 -42 114 -149 71 -233 -53 -103 -184 -153
-307 -117 -56 16 -129 53 -121 61 2 2 37 -5 78 -16 88 -23 133 -25 185 -6 22
7 45 11 52 9 6 -3 12 0 12 6 0 6 6 11 13 11 16 0 57 95 57 131 0 42 -41 93
-82 103 -33 8 -58 37 -58 67 0 12 65 2 100 -16z m-505 -264 c69 -53 165 -89
287 -107 128 -19 192 -37 288 -81 64 -29 72 -36 57 -45 -11 -6 -67 -9 -138 -7
-65 2 -119 3 -119 3 0 -1 30 -19 66 -40 86 -50 193 -165 236 -252 30 -61 33
-74 33 -162 0 -81 -4 -103 -26 -150 -48 -104 -130 -169 -244 -196 -168 -39
-325 30 -402 177 -23 46 -28 66 -28 134 0 69 4 86 27 126 72 122 236 183 356
133 108 -45 186 -197 148 -289 -22 -52 -43 -74 -91 -96 -79 -37 -172 -16 -229
51 -34 41 -36 114 -5 154 23 30 69 56 96 56 12 -1 7 -5 -12 -14 -63 -28 -93
-88 -71 -141 42 -99 205 -100 252 -1 15 31 15 37 0 82 -37 113 -141 168 -247
132 -166 -56 -210 -234 -91 -369 73 -83 218 -113 336 -68 122 45 190 150 191
294 0 59 -5 81 -32 135 -65 132 -139 200 -340 315 -65 38 -128 74 -140 82
l-21 14 23 -58 c27 -69 41 -143 27 -143 -21 0 -92 105 -121 178 -30 76 -72
136 -147 208 -48 46 -54 54 -19 25 28 -23 73 -59 100 -80z m-12234 -145 c79
-17 189 -70 189 -91 0 -8 8 -15 18 -15 29 0 126 -108 162 -179 66 -131 73
-261 24 -411 -81 -242 -291 -385 -516 -351 -150 24 -279 114 -334 234 -24 52
-28 74 -28 142 1 99 26 174 90 267 101 149 257 187 397 98 172 -109 164 -382
-13 -457 -72 -31 -196 -7 -246 48 -22 24 -19 24 40 -6 87 -44 185 -30 239 34
52 62 61 150 22 228 -35 70 -88 106 -166 111 -74 5 -107 -8 -160 -65 -59 -64
-91 -142 -96 -233 -4 -67 -2 -81 24 -130 74 -144 282 -209 439 -137 166 77
278 295 245 476 -17 93 -57 167 -127 237 -89 89 -171 127 -290 132 -159 7
-297 -50 -424 -178 -81 -81 -122 -148 -164 -271 -69 -204 -71 -317 -17 -836
l6 -62 40 76 c44 83 167 220 173 191 10 -50 -66 -242 -139 -355 -22 -34 -51
-90 -63 -125 -13 -35 -28 -76 -35 -91 -6 -16 -11 -43 -12 -60 0 -18 -5 -41
-10 -52 -5 -13 -6 21 -3 91 6 101 4 122 -22 225 -18 73 -45 145 -73 199 -86
166 -109 216 -139 302 -37 105 -62 221 -62 285 l1 48 78 -83 c44 -47 102 -123
131 -173 29 -49 53 -89 54 -89 1 0 -2 37 -7 83 -17 167 12 366 77 526 64 158
179 282 331 357 140 69 243 86 366 60z m-1098 -1066 c95 -36 155 -92 204 -190
54 -107 64 -172 55 -360 -6 -124 -9 -142 -20 -123 -7 14 -16 87 -20 186 -8
153 -10 168 -39 229 -55 117 -136 184 -255 209 -139 30 -288 -77 -288 -208 0
-98 96 -193 195 -193 108 0 186 73 164 153 -15 56 -68 107 -112 107 -50 0 -97
-41 -97 -85 0 -47 8 -64 41 -80 36 -19 66 -19 103 0 36 19 42 19 25 -1 -36
-44 -124 -58 -169 -27 -35 24 -48 43 -61 87 -21 77 35 163 124 187 150 41 301
-143 243 -296 -23 -59 -90 -117 -162 -140 -189 -59 -376 80 -378 280 0 57 4
79 26 121 28 53 86 112 137 139 78 40 187 42 284 5z m1170 -100 c57 -21 114
-73 142 -130 28 -55 32 -157 8 -211 -46 -104 -143 -170 -249 -170 -100 -1
-166 39 -209 124 -55 111 -18 220 95 277 120 60 240 1 240 -118 0 -80 -56
-142 -128 -142 -41 0 -102 55 -102 92 1 23 1 23 17 -4 47 -75 143 -48 143 40
0 54 -49 78 -107 52 -81 -36 -97 -109 -40 -175 28 -32 40 -38 83 -42 196 -19
266 251 88 338 -147 71 -315 -12 -438 -216 -58 -97 -135 -200 -205 -277 -75
-82 -84 -72 -13 15 71 86 133 182 192 295 66 129 161 220 268 258 56 20 153
17 215 -6z m12622 -1209 c21 -35 73 -102 116 -149 44 -46 99 -115 124 -152 45
-68 90 -158 83 -166 -8 -7 -128 77 -174 123 -26 25 -44 37 -40 27 100 -255 82
-457 -51 -589 -62 -61 -141 -98 -218 -103 -88 -6 -129 7 -133 42 -3 24 -1 28
15 21 43 -17 141 -17 192 0 68 22 152 99 187 172 36 73 45 224 20 323 -19 73
-145 393 -146 369 0 -29 -30 -114 -51 -149 l-22 -35 -9 25 c-11 30 -2 111 24
215 20 79 21 116 3 265 -3 25 5 -4 18 -65 18 -81 34 -127 62 -174z m56 74 c31
-102 62 -157 113 -202 99 -87 239 -83 288 8 23 43 23 66 -2 107 -40 65 -118
89 -180 57 -55 -28 -49 -100 11 -134 29 -16 77 -8 86 14 10 27 -7 65 -33 77
-21 10 -31 9 -55 -4 -34 -20 -39 -6 -7 16 48 34 111 15 134 -41 24 -57 -9
-117 -73 -129 -47 -9 -78 2 -123 42 -73 67 -73 147 3 207 89 72 236 33 294
-77 21 -40 18 -120 -4 -159 -11 -17 -38 -45 -61 -61 -35 -25 -51 -30 -104 -30
-84 0 -132 18 -191 73 -59 55 -89 111 -117 219 -11 45 -24 92 -30 106 -5 13
-6 27 -2 31 9 8 25 -29 53 -120z m-14935 -206 c42 -11 61 -29 29 -29 -9 0 -15
-10 -15 -26 0 -21 -4 -25 -17 -19 -10 4 -54 9 -99 12 -180 12 -308 -67 -397
-246 -41 -83 -42 -87 -42 -185 1 -192 55 -321 233 -553 64 -84 135 -177 157
-206 l40 -52 0 100 c0 95 16 185 34 185 4 0 18 -30 31 -67 16 -49 25 -108 31
-208 10 -164 22 -219 77 -336 67 -144 57 -142 -20 5 -62 120 -82 149 -145 209
-84 81 -145 127 -223 167 -116 60 -278 190 -351 283 -22 27 -38 51 -36 53 10
11 192 -52 266 -92 46 -24 85 -44 87 -44 2 0 -23 35 -56 78 -111 145 -167 292
-177 457 -6 115 7 180 60 278 58 110 182 210 295 236 54 13 186 13 238 0z
m-23 -246 c20 -9 37 -20 37 -24 0 -20 -49 -33 -112 -30 -127 5 -178 -44 -178
-170 0 -122 61 -219 159 -254 62 -21 169 -19 233 5 118 44 171 122 176 263 3
61 8 87 16 87 7 0 21 9 31 20 28 31 38 11 43 -83 10 -182 -63 -306 -223 -379
-43 -20 -66 -23 -165 -23 -133 0 -178 15 -252 84 -69 63 -101 137 -106 248 -4
81 -2 97 21 146 53 117 192 165 320 110z m14727 0 c117 -38 187 -141 178 -263
-12 -164 -134 -243 -269 -172 -70 36 -102 93 -96 170 7 91 76 136 168 109 l44
-14 -62 1 c-51 1 -65 -3 -86 -22 -33 -31 -40 -73 -21 -122 19 -48 52 -76 106
-91 52 -14 106 11 130 61 20 39 24 124 7 167 -40 106 -203 154 -311 91 -93
-55 -130 -198 -80 -310 13 -30 17 -50 11 -54 -6 -3 -14 -15 -18 -27 -7 -18
-13 -11 -42 48 -30 62 -34 78 -34 150 1 61 6 92 23 130 63 138 202 197 352
148z m-14226 -587 c182 -76 196 -318 24 -407 -99 -51 -249 3 -287 104 -29 76
12 172 91 213 107 56 234 -66 179 -170 -25 -45 -106 -59 -148 -25 -20 17 -16
31 6 19 69 -36 135 36 81 90 -46 46 -120 6 -120 -65 0 -39 30 -69 84 -84 79
-21 156 41 156 126 0 53 -33 100 -90 131 -37 19 -55 23 -99 18 -85 -8 -139
-47 -180 -129 -34 -68 -35 -70 -42 -245 -7 -159 -25 -283 -46 -302 -3 -3 -2 9
2 25 4 17 9 131 10 255 3 243 9 275 64 350 33 46 46 56 106 85 58 29 155 34
209 11z m-844 -416 c87 -47 156 -118 214 -220 27 -47 64 -106 82 -132 19 -27
30 -48 26 -48 -19 0 -76 65 -127 145 -70 109 -124 161 -208 204 -57 29 -74 33
-141 33 -99 -1 -172 -32 -211 -90 -70 -106 -23 -219 106 -253 62 -17 112 -5
159 37 69 62 61 122 -20 164 -50 25 -81 25 -114 -1 -47 -37 -26 -109 38 -125
27 -6 84 19 93 42 8 20 24 17 16 -3 -11 -32 -46 -63 -84 -74 -31 -10 -43 -9
-75 7 -45 22 -84 75 -84 113 0 15 8 42 19 61 54 103 203 109 304 12 57 -55 67
-113 36 -194 -9 -23 -15 -26 -29 -18 -24 13 -80 13 -80 0 0 -5 -8 -10 -18 -10
-11 0 -24 -11 -30 -25 -8 -18 -20 -25 -39 -25 -35 0 -48 -9 -58 -38 -6 -20
-11 -22 -38 -16 -55 12 -106 44 -100 62 4 13 3 14 -5 4 -7 -11 -12 -10 -26 3
-9 9 -16 23 -16 31 0 8 -4 13 -9 9 -6 -3 -15 3 -20 13 -7 14 -6 25 5 40 18 26
9 46 -17 39 -15 -4 -17 -2 -9 13 7 13 7 21 0 25 -31 19 7 122 65 178 60 58
122 78 235 74 86 -3 101 -6 160 -37z m14316 -636 c-6 -84 -5 -100 13 -137 35
-72 117 -101 162 -56 21 21 21 31 4 87 -9 28 19 31 35 3 32 -61 -15 -141 -85
-141 -44 0 -86 21 -114 56 -12 15 -21 25 -21 23 0 -2 7 -29 15 -59 8 -30 15
-72 15 -94 l0 -39 -19 24 c-10 13 -27 42 -38 63 l-20 39 -7 -59 c-7 -64 -51
-168 -82 -196 -32 -28 -107 -58 -148 -58 -120 0 -222 129 -195 247 27 124 142
176 245 113 89 -56 100 -166 22 -236 -34 -31 -62 -37 -102 -20 -64 27 -87 116
-41 161 13 14 31 25 40 25 17 0 75 -27 75 -36 0 -2 -9 0 -19 6 -77 41 -134
-47 -71 -110 48 -48 118 -7 127 72 4 37 1 49 -21 75 -50 60 -130 67 -178 15
-36 -38 -48 -65 -48 -106 0 -96 78 -176 173 -176 72 0 125 35 166 110 35 63
36 68 40 193 l3 127 -36 -36 c-20 -20 -39 -34 -42 -31 -8 7 24 78 45 102 10
11 28 38 40 60 19 35 21 36 18 12 -5 -35 11 -124 29 -157 13 -25 13 -24 7 10
-3 19 -6 37 -6 40 -2 19 16 180 20 180 3 0 3 -43 -1 -96z m-14266 -799 c86
-63 134 -162 134 -277 0 -91 -39 -169 -108 -215 -63 -43 -115 -56 -202 -51
-88 4 -154 41 -196 108 -51 83 -56 207 -11 268 39 53 70 67 142 67 57 0 74 -4
110 -28 46 -31 80 -91 81 -142 0 -70 -67 -126 -147 -124 l-38 1 50 13 c53 15
105 61 105 93 0 10 -10 38 -22 62 -41 80 -149 103 -215 45 -26 -21 -28 -29
-28 -92 0 -85 23 -135 78 -171 35 -23 51 -27 116 -27 62 0 84 4 118 24 75 43
109 115 100 211 -6 72 -33 125 -92 179 -38 35 -46 47 -41 67 4 13 9 24 12 24
4 0 28 -16 54 -35z m-537 -354 c16 -128 52 -198 212 -404 l90 -117 6 78 c4 42
11 88 17 102 l10 25 15 -35 c17 -39 39 -179 31 -192 -11 -18 20 -155 48 -211
30 -61 49 -107 45 -107 -2 0 -25 43 -52 96 -63 122 -133 193 -275 277 -71 42
-133 90 -194 149 -50 48 -88 89 -85 92 9 9 155 -40 203 -68 24 -14 47 -26 50
-26 3 0 -12 24 -34 53 -84 109 -157 317 -123 351 16 16 29 -5 36 -63z m89
-475 c59 -21 132 -83 169 -143 83 -133 114 -177 162 -230 37 -40 44 -51 24
-38 -37 24 -126 129 -184 216 -48 73 -95 118 -152 145 -81 39 -182 25 -238
-31 -28 -28 -33 -40 -33 -82 0 -41 5 -54 28 -75 52 -51 116 -61 170 -28 67 41
65 107 -4 136 -44 18 -79 12 -95 -17 -9 -17 -7 -26 8 -48 25 -33 62 -38 91
-11 16 16 22 17 22 6 0 -8 -12 -24 -27 -36 -57 -44 -143 2 -143 75 0 24 9 45
29 67 26 29 36 33 78 33 154 -1 216 -144 106 -246 -78 -73 -219 -55 -288 36
-69 90 -22 230 91 270 49 18 138 18 186 1z"/>
<path d="M12776 16750 c-3 -25 -7 -65 -8 -90 l-3 -44 97 -12 c120 -15 143 -26
133 -62 -4 -15 -10 -69 -12 -120 l-4 -93 -57 6 c-558 54 -604 60 -634 85 -27
21 -27 66 -3 145 20 61 11 56 163 90 l72 17 0 39 0 39 -279 0 -279 0 -9 -62
-8 -63 45 -8 c25 -4 60 -10 78 -13 19 -3 38 -15 48 -29 18 -27 30 -130 20
-169 l-6 -26 -350 0 c-193 0 -350 3 -350 8 0 4 -4 34 -9 67 -5 33 -12 79 -15
103 l-6 42 136 0 136 0 -6 23 c-3 12 -6 34 -6 50 l0 27 -177 0 c-221 0 -458
-10 -475 -21 -10 -6 -9 -16 5 -45 l18 -36 87 6 c48 3 117 9 155 12 l67 6 0
-151 c0 -148 0 -151 -22 -156 -59 -13 -694 -83 -699 -77 -7 8 -42 222 -37 227
1 2 51 26 109 53 l107 50 -5 48 c-3 27 -7 51 -9 53 -3 3 -472 -94 -611 -126
-22 -5 -23 -10 -23 -85 l0 -81 38 7 c276 45 291 44 318 -20 13 -31 31 -204 21
-204 -7 0 -786 -170 -809 -176 -13 -4 -26 20 -62 113 -25 64 -43 120 -39 123
5 4 75 21 158 39 82 18 150 33 151 34 2 1 -6 31 -16 67 -11 41 -23 65 -31 64
-8 -1 -88 -19 -179 -42 -91 -22 -244 -57 -340 -78 -96 -21 -178 -40 -183 -44
-7 -6 29 -127 42 -143 4 -4 67 6 140 23 73 16 141 30 150 30 10 0 36 -39 73
-109 51 -96 56 -110 40 -116 -223 -87 -799 -275 -841 -275 -57 0 -101 67 -100
155 l0 50 149 69 c83 38 150 75 150 82 0 22 -41 124 -49 124 -28 0 -661 -309
-661 -322 0 -16 45 -78 57 -78 7 0 69 25 139 56 69 31 129 52 133 47 14 -17
93 -194 89 -198 -4 -4 -564 -228 -806 -323 l-44 -17 -27 30 c-34 39 -88 163
-75 174 5 5 59 39 119 76 61 37 111 68 113 70 6 6 -29 66 -36 61 -4 -2 -128
-54 -277 -116 -148 -61 -291 -121 -317 -132 l-47 -20 30 -44 c16 -24 36 -44
43 -44 7 0 36 7 66 16 29 9 72 16 96 17 36 2 49 -3 73 -28 16 -17 41 -52 55
-80 21 -42 23 -52 11 -61 -8 -6 -174 -86 -370 -178 -250 -118 -361 -165 -375
-161 -32 10 -50 47 -56 116 l-5 64 110 80 109 80 -30 58 c-17 31 -37 57 -45
57 -8 0 -65 -28 -126 -62 -113 -61 -479 -268 -486 -274 -6 -5 23 -104 31 -104
5 0 71 31 147 69 l139 70 51 -81 c28 -45 49 -82 48 -83 -1 -1 -152 -93 -336
-205 l-334 -204 -28 35 c-35 42 -69 108 -69 135 0 27 30 54 112 101 l68 39
-35 34 c-31 30 -37 32 -60 22 -40 -18 -545 -322 -545 -328 0 -4 47 -90 56
-103 2 -1 69 33 150 78 80 45 149 81 153 81 3 0 24 -28 45 -62 21 -35 45 -72
53 -84 13 -20 2 -27 -320 -207 -184 -102 -339 -187 -344 -189 -6 -2 -34 29
-62 69 l-51 72 75 61 75 61 -31 45 c-21 31 -34 42 -42 36 -18 -13 -461 -374
-471 -383 -8 -7 21 -79 32 -79 3 0 62 30 133 66 l128 66 38 -30 c21 -16 48
-41 61 -54 l23 -25 -278 -263 c-153 -145 -294 -278 -313 -297 l-35 -33 -68 90
-69 90 76 88 c42 49 76 94 76 99 0 6 -13 16 -29 23 -30 12 -31 11 -271 -207
l-240 -218 27 -12 c16 -7 33 -12 39 -13 6 0 68 50 138 112 l128 111 81 -81 81
-81 -20 -23 c-11 -13 -107 -121 -213 -240 -106 -120 -199 -218 -206 -218 -8 0
-55 20 -105 44 -49 25 -95 46 -101 48 -7 2 3 32 25 75 l36 72 -29 20 c-16 12
-33 21 -38 21 -9 0 -355 -393 -361 -410 -3 -7 58 -40 73 -40 2 0 40 54 85 120
44 66 85 120 90 120 7 0 208 -115 219 -126 2 -2 -94 -125 -213 -274 -140 -174
-222 -270 -231 -266 -7 2 -47 19 -89 36 l-75 32 31 54 c17 31 27 59 22 63 -8
7 -136 33 -140 28 -32 -43 -244 -370 -244 -376 0 -6 21 -11 48 -13 47 -3 47
-3 133 80 l86 84 101 -13 c60 -7 102 -17 102 -23 0 -12 -286 -545 -300 -560
-5 -5 -61 -3 -129 4 l-121 13 7 26 c3 14 12 46 19 71 8 25 14 48 14 51 0 5
-116 39 -135 39 -2 0 -52 -94 -110 -210 l-105 -210 90 0 91 0 50 107 c28 59
52 109 54 111 6 6 164 -58 170 -69 5 -8 -248 -596 -263 -610 -8 -8 -268 24
-279 34 -3 4 3 49 15 99 11 51 19 94 17 96 -2 2 -30 1 -63 -3 l-59 -7 -43
-141 c-24 -78 -58 -182 -76 -231 -18 -50 -31 -92 -29 -95 9 -8 159 28 171 41
6 7 21 43 33 79 l22 67 47 5 c142 18 212 20 212 6 0 -11 -76 -310 -130 -508
l-11 -41 -124 0 -125 0 0 99 c0 61 -4 102 -11 106 -6 4 -38 4 -73 1 l-62 -7
-37 -212 c-21 -117 -37 -217 -37 -223 0 -13 99 -39 109 -28 5 5 23 47 41 94
18 47 35 87 36 89 6 8 224 -63 224 -73 -1 -20 -87 -406 -92 -411 -3 -3 -51 0
-107 7 -113 13 -111 11 -131 95 -12 52 -12 52 -62 63 -28 6 -53 8 -56 6 -8 -9
-29 -381 -21 -390 7 -8 121 -38 126 -32 2 1 8 50 15 109 6 58 15 111 19 118 5
9 30 7 106 -7 l98 -20 27 -229 c14 -127 27 -240 27 -252 1 -23 -1 -23 -118
-23 l-118 0 -32 70 c-33 76 -35 77 -114 64 l-37 -7 0 -158 c0 -88 4 -159 8
-159 35 0 112 36 153 70 l50 42 87 -6 c48 -4 106 -9 130 -12 l43 -5 -3 -127
-3 -127 -165 -24 c-91 -13 -167 -25 -168 -27 -2 -1 4 -49 15 -105 l18 -102 40
-17 40 -17 5 71 5 71 114 13 c63 6 116 10 118 8 4 -4 83 -303 83 -315 0 -4
-25 -16 -55 -26 -30 -11 -55 -22 -55 -25 0 -3 19 -18 41 -34 l41 -29 76 36
c42 20 77 35 78 34 1 -1 41 -66 88 -145 l86 -144 -20 -28 -20 -28 147 -36 c81
-19 149 -33 151 -31 2 2 -23 36 -56 77 -180 219 -329 512 -417 813 -153 527
-135 1236 46 1835 319 1057 1234 2265 2369 3127 550 417 1043 710 1910 1132
1319 643 2608 1030 3943 1186 1289 150 2412 74 3218 -219 554 -201 1116 -576
1434 -957 202 -242 353 -543 415 -825 70 -321 68 -722 -5 -1141 -28 -163 -98
-441 -149 -593 -19 -57 -33 -106 -31 -108 2 -2 34 58 72 132 l68 136 78 0 c52
0 77 -4 77 -12 0 -6 -8 -35 -17 -64 -9 -30 -14 -56 -12 -59 3 -2 21 0 40 5 31
9 42 23 117 159 107 192 107 191 49 191 -25 0 -52 -3 -61 -6 -8 -3 -32 -41
-52 -85 -23 -49 -42 -78 -50 -75 -30 12 -133 92 -134 105 0 19 111 383 122
397 9 13 167 27 202 18 13 -3 28 -16 34 -29 10 -21 16 -23 49 -18 21 3 39 6
39 7 1 1 4 61 8 134 l6 132 -30 0 c-36 0 -37 -2 -45 -102 l-7 -78 -94 0 -94 0
0 255 c0 209 -2 255 -14 255 -10 0 -19 38 -35 138 -38 244 -38 233 7 264 l40
28 -112 167 c-62 93 -120 180 -130 194 l-16 26 95 78 96 78 47 -47 c26 -25 52
-46 56 -46 13 0 96 54 96 62 0 3 -35 68 -77 142 l-77 137 -39 -40 -40 -39 21
-62 21 -61 -32 -28 c-90 -79 -142 -121 -148 -121 -9 0 -252 310 -247 315 56
52 213 175 223 175 8 0 25 -4 39 -10 21 -8 31 -4 68 26 24 20 47 40 52 44 5 5
-40 63 -103 134 l-113 126 -61 -47 c-34 -25 -66 -50 -71 -54 -5 -5 26 -48 74
-99 95 -105 100 -89 -46 -164 l-96 -49 -76 75 c-43 40 -126 121 -186 179
l-109 106 86 66 c47 37 88 67 92 67 3 0 27 -14 51 -31 l45 -31 62 68 c67 72
91 103 86 109 -56 51 -265 212 -271 209 -4 -3 -35 -41 -68 -84 l-61 -80 51
-64 c27 -35 50 -68 50 -72 0 -9 -177 -94 -194 -94 -5 0 -96 62 -203 138 l-194
137 87 82 86 82 68 -34 69 -35 63 71 c35 38 64 73 66 78 1 4 -91 65 -204 136
l-207 129 -29 -35 c-16 -18 -43 -50 -59 -70 l-29 -37 92 -37 c51 -20 95 -39
97 -41 2 -2 -40 -57 -92 -123 l-97 -120 -237 115 c-131 63 -242 119 -247 124
-7 7 32 152 64 234 l8 23 124 -34 c116 -32 124 -32 136 -16 18 24 64 114 60
117 -2 2 -61 17 -133 35 -71 18 -176 45 -233 62 -56 16 -108 29 -115 29 -7 0
-19 -23 -26 -51 l-13 -51 55 -57 55 -56 -40 -100 c-22 -55 -41 -102 -43 -104
-5 -4 -537 208 -546 217 -5 6 36 168 55 219 3 8 38 1 112 -23 59 -18 110 -31
112 -29 9 9 30 160 23 166 -5 6 -407 55 -501 62 -22 2 -26 -3 -34 -45 -5 -27
-7 -50 -5 -53 3 -2 41 -10 85 -16 43 -6 82 -14 86 -18 4 -3 -5 -57 -19 -119
l-27 -113 -40 6 c-23 2 -151 14 -286 25 -135 11 -259 23 -277 26 l-32 5 14 42
c8 23 23 75 35 115 l21 72 98 0 99 0 17 90 c10 50 16 92 14 94 -2 1 -138 16
-301 32 l-297 30 -5 -46z"/>
<path d="M12015 16149 c-1455 -53 -3002 -433 -4420 -1084 -282 -129 -844 -409
-1054 -524 -766 -421 -1358 -854 -1915 -1401 -840 -825 -1422 -1746 -1639
-2595 -104 -402 -131 -898 -72 -1303 63 -429 238 -826 503 -1142 44 -52 90
-105 103 -116 20 -17 107 -38 464 -108 1114 -218 1909 -312 2918 -342 125 -4
226 -10 224 -13 -54 -101 -79 -208 -79 -346 0 -174 44 -340 142 -535 69 -137
127 -213 305 -405 204 -219 302 -333 454 -530 176 -227 258 -319 432 -490 234
-229 450 -409 829 -692 411 -306 825 -587 2232 -1513 859 -565 1089 -735 1426
-1051 358 -337 430 -402 477 -434 28 -18 86 -66 130 -105 344 -311 629 -521
728 -537 31 -5 41 -1 66 24 47 48 56 96 56 303 -1 181 -18 340 -60 538 -10 48
-10 83 -3 140 13 105 3 612 -16 792 -35 322 -92 680 -136 845 -116 440 -372
980 -732 1545 l-85 135 15 97 14 97 32 3 c26 3 33 9 44 43 28 83 -6 315 -78
535 -110 335 -318 642 -579 852 -179 144 -602 400 -1051 638 -318 167 -396
229 -470 368 -29 53 -70 124 -91 156 -22 33 -36 63 -32 66 4 4 85 29 178 55
561 154 608 170 758 252 1313 711 2395 1606 3150 2608 570 756 871 1462 989
2315 8 59 13 196 13 360 0 293 -16 418 -76 620 -118 400 -409 791 -801 1078
-579 425 -1137 643 -1909 746 -426 57 -855 74 -1384 55z m-1423 -2884 c196
-19 476 -66 593 -100 284 -82 416 -217 580 -590 103 -234 153 -407 176 -611
11 -106 9 -154 -22 -359 -27 -179 -35 -390 -20 -494 16 -108 44 -185 130 -352
119 -235 119 -323 0 -757 -58 -214 -82 -285 -175 -507 -95 -229 -174 -448
-234 -650 -23 -77 -54 -162 -68 -189 -41 -76 -135 -154 -277 -230 -156 -84
-233 -136 -350 -236 -192 -165 -260 -269 -301 -460 -24 -106 -23 -324 1 -467
22 -134 17 -148 -50 -141 -33 4 -88 39 -300 190 -143 101 -336 238 -430 303
-93 65 -237 169 -320 232 -350 264 -428 322 -526 394 -88 64 -810 656 -935
767 -38 34 -43 43 -52 107 -6 39 -14 198 -17 355 -5 240 -9 291 -23 320 -21
44 -63 59 -135 49 -172 -25 -286 -2 -408 81 -180 121 -257 206 -389 425 -173
287 -203 372 -181 512 19 125 57 213 123 289 48 55 99 76 205 84 133 10 136
14 128 150 -7 97 -5 111 16 160 55 132 174 283 429 544 382 392 703 629 1155
856 222 111 414 185 627 239 360 93 693 120 1050 86z m-2770 -5176 c29 -8 48
-23 85 -72 26 -34 76 -97 111 -140 l65 -78 -5 -67 c-11 -145 -108 -239 -259
-250 -170 -12 -290 99 -289 267 1 104 62 172 161 179 100 7 174 -43 199 -136
13 -50 -3 -97 -44 -129 -32 -26 -98 -39 -123 -24 -15 9 -11 10 20 11 45 0 92
22 107 49 37 69 -25 168 -111 178 -53 6 -106 -14 -127 -48 -21 -33 -17 -131 7
-178 49 -95 181 -127 292 -71 96 50 133 179 84 296 -20 49 -83 113 -139 141
-73 38 -192 44 -262 14 -92 -40 -163 -133 -186 -243 -10 -46 -9 -70 5 -139 23
-116 68 -201 194 -362 l108 -138 6 89 c6 97 15 126 32 97 20 -36 37 -122 37
-190 1 -119 44 -255 81 -255 38 0 177 -51 242 -89 37 -22 64 -35 60 -28 -4 7
-21 32 -39 57 -30 43 -74 133 -74 152 0 29 163 -103 227 -184 80 -101 101
-123 109 -115 4 4 -11 26 -34 50 -125 128 -103 309 43 357 49 16 111 6 157
-27 43 -29 88 -111 88 -159 0 -30 1 -31 54 -37 147 -15 263 -137 274 -289 7
-95 -11 -151 -67 -209 -119 -122 -318 -91 -381 60 -8 21 -18 30 -29 27 -9 -3
-33 -8 -53 -12 -21 -3 -38 -9 -38 -13 0 -4 9 -35 21 -68 25 -75 62 -138 162
-272 l77 -103 0 65 c0 36 5 78 11 94 l11 28 15 -35 c8 -19 19 -86 23 -150 11
-143 37 -240 65 -240 32 0 146 -43 199 -75 32 -19 60 -35 63 -35 2 0 -5 13
-17 30 -27 38 -83 161 -76 167 11 11 110 -72 168 -141 81 -95 85 -98 55 -46
-14 25 -29 65 -33 89 -7 42 -6 43 15 32 11 -7 21 -16 21 -21 0 -6 4 -9 8 -8 5
2 57 -17 116 -42 107 -44 108 -45 85 -62 -21 -18 -21 -19 -4 -38 28 -30 84
-44 129 -32 37 11 76 0 76 -21 0 -18 -76 -39 -128 -35 -59 5 -96 27 -127 76
-11 17 -33 36 -48 43 -16 7 -40 28 -54 48 l-25 36 6 -39 c7 -51 50 -95 147
-151 41 -24 97 -60 123 -80 27 -20 49 -35 51 -33 1 2 10 18 19 35 19 38 59 68
81 59 23 -8 18 -20 -14 -33 -47 -17 -63 -62 -72 -201 -8 -135 -20 -180 -17
-61 1 41 1 100 -1 131 -3 54 -6 58 -46 87 -70 50 -245 140 -245 127 0 -22 103
-110 150 -130 81 -33 91 -39 79 -47 -7 -4 -9 -15 -5 -24 3 -9 10 -66 16 -126
12 -138 23 -161 89 -178 27 -7 75 -28 106 -46 31 -19 55 -31 53 -27 -2 4 -18
37 -37 74 -18 37 -31 73 -28 80 3 8 37 -20 90 -74 76 -78 84 -83 70 -50 -10
23 -14 55 -11 90 6 67 44 111 104 119 37 5 42 2 92 -50 45 -48 52 -61 52 -96
0 -31 -7 -49 -31 -76 -41 -47 -92 -49 -133 -6 -56 58 -39 154 27 154 61 0 89
-71 45 -109 -13 -10 -17 -12 -10 -4 6 8 12 23 12 35 0 46 -55 63 -66 20 -8
-32 19 -75 48 -75 60 0 79 84 32 139 -34 41 -75 42 -115 2 -62 -62 -23 -190
77 -249 25 -15 73 -47 106 -71 55 -39 60 -41 54 -20 -14 52 -18 136 -7 174 15
55 27 73 41 59 7 -7 6 -21 -5 -47 -21 -50 -19 -123 6 -203 24 -77 28 -84 124
-217 63 -87 70 -94 73 -70 7 74 14 113 21 113 13 0 31 -83 31 -142 0 -89 36
-198 65 -198 27 0 110 -32 157 -61 l47 -28 -33 62 c-19 34 -37 73 -41 86 -7
23 -5 22 40 -10 26 -19 71 -62 99 -97 94 -116 161 -184 206 -209 25 -13 36
-21 25 -17 -11 3 -72 10 -135 14 -64 3 -124 11 -134 17 -16 9 -15 11 14 22 18
6 49 11 69 11 35 0 32 2 -69 70 -112 75 -180 105 -257 116 l-48 6 25 -28 25
-29 -31 28 c-39 35 -75 35 -140 -3 -80 -45 -113 -113 -100 -204 10 -66 57
-130 118 -160 61 -31 108 -32 164 -7 130 59 75 271 -71 271 -61 0 -90 -26 -90
-80 0 -35 6 -47 33 -71 55 -49 112 -36 130 31 l10 35 1 -31 c1 -38 -29 -79
-64 -88 -39 -10 -110 26 -130 64 -35 67 -14 150 43 171 36 14 110 13 147 -1
99 -38 145 -171 92 -270 -73 -138 -308 -112 -388 42 -54 104 -43 211 28 279
39 37 91 69 115 69 40 1 40 17 -3 85 -70 111 -166 153 -249 110 -36 -19 -50
-43 -50 -88 0 -71 96 -113 147 -65 44 41 16 103 -44 96 -22 -2 -29 -9 -31 -30
-4 -38 30 -56 63 -34 19 12 23 13 19 2 -10 -26 -51 -40 -79 -28 -55 25 -54
105 1 131 33 15 50 14 89 -5 48 -22 69 -71 53 -120 -45 -136 -258 -94 -258 51
0 82 59 135 150 135 91 0 150 -45 219 -169 27 -47 40 -61 58 -61 27 0 28 2 7
43 -26 51 -92 115 -179 172 -78 50 -185 148 -185 168 0 13 46 1 112 -31 54
-27 60 -25 32 8 -7 8 -24 39 -39 68 -29 57 -73 95 -168 143 -32 16 -76 46 -99
67 -33 30 -39 32 -28 13 21 -40 104 -117 156 -146 27 -14 40 -23 29 -19 -42
14 -120 25 -144 21 -27 -5 -130 8 -140 18 -10 10 21 23 71 30 l48 7 -93 63
c-50 34 -111 72 -135 84 -43 22 -141 45 -150 36 -3 -3 5 -17 19 -33 18 -20 15
-19 -12 6 -44 40 -71 40 -139 0 -73 -45 -104 -101 -97 -179 15 -175 198 -280
304 -174 99 99 12 276 -122 251 -93 -18 -80 -160 16 -181 38 -9 67 16 79 66
l8 34 1 -38 c1 -51 -34 -87 -85 -87 -47 0 -109 58 -119 113 -9 45 18 106 55
124 38 19 115 16 160 -7 103 -53 130 -209 53 -301 -98 -116 -312 -52 -368 110
-47 140 6 261 138 315 l56 23 -48 74 c-64 98 -111 127 -194 121 -27 -3 -10
-22 19 -22 33 0 81 -25 94 -49 5 -11 10 -38 10 -60 0 -31 -7 -47 -32 -74 -31
-32 -38 -34 -120 -41 -95 -8 -123 0 -164 46 -33 36 -44 63 -44 108 0 98 86
170 203 170 l58 0 -33 39 c-25 31 -42 41 -75 46 -23 3 -45 10 -48 16 -9 14 44
30 107 32 31 1 54 5 50 8 -4 3 -47 33 -97 66 -159 107 -243 148 -326 158 -21
3 -42 5 -46 6 -25 4 -23 -5 8 -37 18 -19 26 -32 17 -29 -9 4 -29 22 -43 41
-22 29 -30 33 -58 27 -133 -24 -227 -126 -227 -245 0 -94 68 -206 150 -248 96
-49 216 -27 262 49 32 51 32 151 0 203 -29 46 -92 78 -156 78 -40 0 -53 -5
-78 -30 -27 -28 -30 -36 -25 -76 11 -101 130 -156 184 -85 7 9 13 36 13 61 1
40 2 42 11 20 14 -35 2 -88 -26 -116 -48 -48 -155 -23 -202 47 -46 70 -28 180
35 213 84 43 200 22 267 -48 91 -95 87 -259 -8 -343 -100 -88 -284 -63 -385
53 -85 96 -108 242 -54 345 34 66 104 122 183 145 l57 17 -46 71 c-79 124
-145 176 -225 176 -109 0 -186 -95 -143 -177 16 -32 69 -63 106 -63 58 0 113
67 90 110 -17 31 -68 51 -97 37 -25 -11 -32 -54 -11 -75 17 -17 58 -15 81 6
19 16 20 16 8 -5 -24 -46 -73 -55 -115 -22 -21 16 -26 29 -26 64 0 36 5 48 31
69 36 30 76 33 126 9 67 -32 91 -105 54 -173 -52 -100 -187 -109 -267 -18 -57
65 -53 156 9 221 56 60 151 73 233 32 66 -33 99 -68 159 -173 45 -79 53 -87
83 -90 l33 -3 -29 58 c-35 69 -109 141 -212 207 -40 27 -95 66 -121 88 l-47
40 -30 -22 c-36 -27 -99 -36 -145 -21 -46 16 -117 92 -119 128 -2 49 4 87 18
114 33 65 127 109 231 109 51 0 53 1 53 28 0 41 -10 48 -76 55 -34 4 -74 12
-90 18 l-29 11 39 14 c21 8 65 15 97 15 33 1 59 4 59 8 0 3 -12 13 -28 22 -15
9 -84 51 -154 93 -172 105 -327 158 -312 109 2 -10 -1 -8 -7 5 -9 15 -21 22
-43 22 l-30 0 39 -40 c51 -52 37 -52 -20 1 -42 38 -48 41 -89 37 -61 -7 -133
-44 -183 -94 -165 -165 -13 -464 235 -464 80 0 150 35 182 92 48 85 21 211
-55 258 -79 49 -193 46 -234 -7 -53 -67 2 -181 95 -199 71 -13 120 32 118 108
-1 26 2 35 7 27 12 -19 11 -72 -1 -103 -12 -33 -66 -66 -108 -66 -136 0 -227
148 -163 268 34 64 186 87 289 42 98 -43 160 -148 149 -255 -15 -147 -129
-233 -293 -223 -179 12 -319 147 -341 329 -17 140 104 285 265 320 l52 11 -63
91 c-81 119 -148 169 -237 175 -103 8 -176 -34 -195 -111 -10 -38 0 -69 31
-100 30 -30 95 -51 130 -43 39 10 84 55 84 84 0 32 -7 43 -40 65 -55 38 -123
4 -104 -51 14 -41 56 -51 94 -24 36 27 40 15 5 -18 -73 -68 -186 20 -140 109
22 43 68 64 123 58 78 -9 148 -83 138 -146 -23 -143 -208 -193 -324 -87 -55
49 -68 135 -32 206 35 68 99 101 197 101 120 0 205 -62 300 -217 54 -88 59
-94 90 -94 18 0 33 3 33 8 0 4 -15 32 -33 63 -40 71 -129 149 -244 217 -91 54
-186 130 -244 196 -17 20 -29 39 -27 41 9 9 142 -36 196 -66 28 -16 52 -27 52
-24 0 3 -18 29 -39 58 -85 112 -139 278 -127 387 4 30 19 83 35 116 80 171
233 240 423 193z m334 -608 c128 -58 135 -226 14 -289 -122 -63 -264 53 -205
168 35 67 107 90 159 49 39 -31 49 -63 32 -103 -16 -38 -50 -52 -90 -36 -37
14 -32 25 11 25 32 0 39 4 41 23 8 52 -55 72 -84 27 -32 -49 7 -98 78 -98 22
0 39 8 60 31 41 47 38 85 -11 133 -32 33 -45 39 -80 39 -57 0 -104 -22 -133
-61 -38 -51 -48 -92 -48 -193 -1 -91 -20 -220 -35 -234 -5 -4 -4 2 0 13 5 11
9 97 10 190 0 156 2 174 24 218 48 100 160 142 257 98z m902 -1191 c53 -32 74
-75 69 -143 -3 -49 -8 -62 -37 -92 -57 -59 -142 -56 -195 6 -61 73 4 207 90
185 62 -16 88 -93 45 -136 -24 -24 -40 -25 -66 -4 -19 15 -19 15 2 9 25 -7 57
19 52 43 -2 8 -13 21 -25 29 -19 13 -24 12 -42 -6 -44 -44 -12 -101 55 -101
23 0 39 8 53 26 71 91 -52 208 -149 142 -61 -41 -76 -82 -84 -226 -9 -192 -21
-203 -20 -19 0 103 5 173 13 192 40 98 157 145 239 95z m659 -842 c31 -29 30
-73 -1 -93 -20 -13 -29 -14 -48 -5 -22 11 -22 10 -4 -4 11 -9 28 -16 38 -16
19 0 52 28 61 51 4 11 8 11 22 -3 17 -16 17 -18 0 -45 -27 -41 -46 -52 -86
-53 -70 0 -119 63 -99 126 21 62 75 81 117 42z m532 -492 c7 -8 15 -31 18 -53
12 -78 59 -123 130 -123 38 -1 93 -33 79 -48 -15 -14 -131 -6 -164 11 -51 28
-83 86 -89 162 -6 65 2 80 26 51z m-259 -217 c-14 -6 -64 -14 -112 -19 -126
-12 -172 -46 -172 -127 0 -27 7 -42 32 -64 39 -35 56 -36 87 -4 29 28 32 53
10 81 -14 18 -15 17 -6 -7 20 -56 -46 -92 -89 -49 -41 41 -15 111 47 126 37
10 74 -13 97 -60 17 -36 18 -43 5 -79 -19 -55 -73 -84 -123 -67 -97 32 -123
152 -48 223 27 26 111 52 141 43 9 -3 41 -1 71 3 76 12 89 11 60 0z m3464
-165 c143 -51 180 -180 76 -268 -62 -52 -176 -59 -266 -16 -75 37 -93 110 -44
173 45 56 158 60 212 7 34 -35 36 -63 3 -95 -19 -20 -33 -25 -72 -24 l-48 2
48 6 c50 7 67 21 67 57 0 32 -35 56 -87 61 -39 4 -52 1 -70 -16 -74 -70 -9
-161 115 -161 90 0 157 51 157 120 0 51 -29 88 -91 120 -65 34 -179 35 -239 3
-119 -63 -146 -168 -84 -320 32 -78 49 -108 49 -86 0 15 49 73 62 73 13 0 1
-52 -28 -114 -13 -28 -24 -66 -24 -83 0 -28 5 -35 37 -48 20 -9 62 -34 92 -57
37 -28 52 -35 47 -23 -10 27 -20 105 -13 105 12 0 59 -56 88 -105 l29 -50 0
37 c0 99 155 145 232 68 37 -37 36 -73 -1 -111 -25 -24 -37 -29 -81 -29 -41 0
-56 5 -75 25 -48 47 -19 105 51 105 59 0 86 -63 35 -82 -25 -9 -25 -9 -6 13
19 21 19 21 0 35 -24 18 -30 18 -50 -2 -14 -14 -14 -19 -2 -38 29 -44 107 -22
107 31 0 43 -26 63 -82 63 -60 0 -98 -31 -98 -80 0 -46 14 -67 104 -153 70
-68 73 -72 22 -30 -33 26 -81 69 -108 94 -26 25 -48 44 -48 42 0 -15 38 -74
67 -104 l35 -37 -94 28 c-51 15 -106 33 -123 41 l-30 13 26 3 c14 2 45 0 70
-6 l44 -9 -85 79 c-47 43 -105 89 -130 100 -25 12 -53 26 -62 31 -31 14 -40
10 -28 -14 11 -22 10 -22 -4 -4 -8 10 -17 24 -19 30 -7 20 -146 12 -199 -11
-115 -52 -115 -175 2 -235 105 -56 223 -25 245 64 15 59 -100 127 -174 103
-50 -16 -51 -84 -1 -110 42 -22 70 -19 103 13 30 26 29 14 -1 -20 -10 -13 -30
-18 -63 -18 -94 0 -144 84 -83 141 22 20 35 24 87 23 182 -1 250 -162 100
-235 -37 -18 -57 -21 -116 -17 -81 5 -135 29 -181 77 -41 43 -48 121 -14 171
36 55 106 84 200 85 77 0 77 0 71 25 -12 54 -42 108 -71 129 -61 43 -169 44
-204 1 -23 -29 -23 -36 7 -65 18 -19 35 -25 65 -25 76 0 104 34 55 66 -28 19
-75 12 -75 -11 0 -20 36 -37 63 -30 17 5 19 4 7 -4 -51 -36 -132 30 -85 69 29
24 88 23 125 -2 75 -51 29 -123 -80 -123 -64 0 -103 20 -130 68 -12 22 -12 29
0 53 17 31 80 63 126 64 17 0 53 -7 81 -15 66 -19 106 -65 123 -136 7 -30 17
-60 23 -66 15 -20 37 -15 37 8 0 39 -31 86 -109 166 -74 75 -119 138 -107 150
5 5 65 -28 113 -63 l22 -16 -16 54 c-25 84 -33 95 -105 154 -65 53 -100 94
-79 94 5 0 16 -8 23 -18 7 -10 43 -47 80 -81 l67 -62 11 40 c35 132 213 201
374 145z m-1170 -48 c13 -52 104 -106 179 -106 54 0 123 45 139 90 2 5 13 7
25 4 26 -7 22 -26 -16 -68 -56 -61 -165 -75 -256 -32 -46 21 -105 75 -105 96
0 5 -3 15 -6 24 -4 11 0 16 14 16 13 0 22 -9 26 -24z m-1377 -97 c43 -16 82
-59 94 -102 35 -131 -124 -206 -186 -87 -19 37 -19 70 1 98 38 54 143 -3 116
-63 -6 -14 -16 -25 -22 -25 -8 0 -7 6 0 20 25 46 -36 82 -64 38 -13 -22 20
-71 51 -76 22 -3 63 39 63 65 0 29 -31 80 -56 92 -40 18 -63 13 -95 -18 -24
-25 -29 -38 -29 -79 0 -75 44 -134 139 -186 40 -23 90 -56 110 -74 l36 -32
-40 26 c-22 14 -67 40 -100 56 -87 44 -114 66 -146 116 -23 37 -29 57 -29 103
0 64 22 102 74 125 38 16 47 17 83 3z m1903 -19 c57 -15 63 -18 25 -12 -27 4
-81 7 -118 7 -63 0 -71 -2 -93 -28 -13 -15 -24 -33 -24 -38 0 -21 50 -59 78
-59 38 0 71 34 55 58 -13 22 -67 23 -71 1 -5 -25 28 -32 51 -12 19 17 19 17
16 -2 -3 -16 -13 -21 -47 -23 -37 -3 -43 0 -54 24 -11 23 -10 28 11 45 15 12
39 19 66 19 35 0 48 -5 64 -26 27 -34 26 -47 -2 -79 -48 -56 -160 -41 -187 25
-17 42 2 77 55 101 51 24 82 23 175 -1z m717 -190 c45 -20 60 -49 49 -95 -19
-74 -194 -72 -212 2 -14 53 77 94 137 63 26 -14 24 -45 -3 -64 -27 -19 -39
-20 -61 -3 -16 11 -14 12 15 12 23 0 33 5 33 15 0 21 -49 25 -66 4 -12 -14
-10 -19 10 -35 13 -11 33 -19 45 -19 32 0 66 28 66 55 0 35 -36 55 -96 55 -64
0 -97 -24 -148 -109 -19 -31 -45 -66 -57 -77 -19 -16 -19 -13 4 17 14 19 35
55 46 80 23 52 53 82 101 103 47 20 87 19 137 -4z m-1319 -260 c60 -36 81
-134 42 -197 -74 -121 -240 -67 -240 78 0 110 107 174 198 119z m-1303 -1
c-16 -5 -64 -11 -105 -15 -41 -4 -90 -13 -108 -22 -61 -27 -81 -109 -39 -156
34 -39 71 -43 101 -12 31 31 32 45 5 80 -25 31 -40 33 -64 6 -15 -16 -16 -22
-5 -35 20 -24 56 -15 53 13 -2 13 1 21 7 17 15 -9 12 -51 -4 -64 -23 -19 -67
-9 -89 21 -57 76 62 151 133 83 37 -36 45 -73 26 -119 -46 -110 -216 -62 -216
60 0 101 46 135 195 144 142 9 143 9 110 -1z m274 -91 c57 -28 147 -118 196
-197 21 -34 39 -60 41 -58 2 1 -1 20 -6 42 -5 22 -9 60 -9 85 l0 45 26 -50
c15 -27 36 -78 48 -113 l22 -62 6 46 c7 65 34 98 84 102 28 2 47 -3 66 -18 66
-52 94 -177 50 -221 -58 -59 -153 8 -153 108 0 59 20 76 68 59 51 -17 68 -116
19 -116 -20 1 -20 2 -4 11 22 13 22 31 -2 60 -19 23 -21 23 -37 7 -16 -15 -16
-20 -3 -55 13 -34 19 -38 49 -38 28 0 35 5 43 28 13 41 -16 113 -53 132 -39
20 -47 19 -75 -10 -20 -19 -25 -34 -25 -73 0 -66 17 -109 89 -227 34 -54 61
-104 61 -109 0 -14 -105 151 -140 219 -16 33 -30 51 -30 40 0 -26 64 -171 87
-198 l18 -21 -26 19 c-117 88 -177 135 -194 155 l-20 23 29 -7 c17 -4 43 -17
58 -28 16 -11 31 -19 32 -17 8 10 -145 256 -192 309 -126 142 -273 163 -318
44 -48 -127 67 -334 186 -334 120 0 120 187 0 266 -34 23 -44 25 -64 16 -32
-14 -41 -60 -22 -105 32 -77 91 -101 121 -49 15 26 16 26 9 2 -16 -61 -63 -68
-111 -17 -42 44 -55 72 -55 121 -2 106 75 125 170 42 120 -105 106 -326 -21
-326 -118 0 -239 141 -254 295 -8 83 15 148 61 176 43 26 117 25 175 -3z
m2251 -188 c91 -23 69 -26 -32 -4 -84 18 -150 12 -179 -17 -41 -41 -12 -99 51
-99 41 0 60 14 60 45 0 18 -2 17 -13 -5 -16 -33 -59 -38 -86 -11 -25 25 -25
31 -8 55 8 11 31 20 58 23 85 10 134 -68 73 -116 -55 -43 -175 -15 -190 44
-22 90 97 128 266 85z m232 -112 c59 -18 130 -86 160 -155 51 -118 47 -111 47
-87 1 33 30 96 41 89 6 -3 10 -43 11 -88 0 -45 3 -75 6 -67 10 28 56 69 83 75
41 9 96 -18 115 -55 47 -92 -55 -182 -131 -117 -33 28 -37 76 -9 107 22 24 52
26 77 3 31 -28 18 -83 -21 -83 -12 0 -11 3 3 13 24 17 17 51 -11 55 -17 3 -24
-3 -29 -22 -10 -43 35 -73 72 -48 13 9 34 46 34 62 0 23 -49 60 -79 60 -74 0
-110 -88 -77 -186 9 -26 16 -55 15 -63 -1 -20 -37 80 -49 134 -7 34 -8 28 -6
-35 1 -41 6 -84 10 -95 6 -14 3 -12 -9 5 -10 14 -42 51 -72 82 -57 61 -69 87
-30 67 12 -6 30 -18 40 -27 21 -18 21 -11 2 71 -22 95 -41 143 -77 193 -76
105 -200 130 -273 54 -39 -41 -47 -128 -16 -178 56 -88 177 -95 211 -13 33 81
-67 182 -124 125 -21 -20 -20 -73 1 -96 19 -21 63 -24 82 -5 11 10 12 9 6 -1
-4 -7 -18 -17 -31 -22 -79 -31 -139 110 -67 157 55 36 126 6 164 -69 27 -54
20 -101 -22 -144 -58 -60 -134 -57 -204 7 -69 64 -87 153 -45 228 40 70 114
96 202 69z m-2274 -182 c46 -24 167 -106 156 -106 -5 0 -43 20 -84 45 -111 66
-180 58 -180 -23 0 -86 98 -150 116 -75 4 13 4 27 0 30 -3 4 -6 -1 -6 -9 0 -9
-7 -21 -15 -28 -20 -17 -57 8 -75 50 -27 64 29 105 88 64 71 -50 67 -184 -6
-184 -67 0 -132 79 -132 160 0 75 68 112 138 76z m2350 -205 c20 -11 60 -43
87 -72 52 -56 43 -51 -39 19 -57 49 -105 62 -141 38 -35 -23 -35 -79 0 -102
43 -28 87 4 65 47 -14 25 -50 25 -50 0 0 -27 17 -36 37 -19 14 11 15 11 11 -2
-3 -9 -17 -15 -34 -15 -22 0 -31 6 -38 27 -13 36 6 58 49 58 36 0 75 -37 75
-70 0 -10 -9 -29 -21 -44 -45 -58 -149 -12 -149 66 0 76 71 109 148 69z m-701
-241 c47 -29 66 -72 61 -142 -5 -64 -33 -105 -89 -128 -84 -35 -179 42 -179
146 0 112 114 181 207 124z"/>
<path d="M8405 7036 c-89 -40 -107 -159 -39 -257 35 -50 42 -55 61 -36 14 14
12 19 -20 51 -64 64 -69 139 -11 185 84 66 206 -46 129 -119 -14 -13 -27 -21
-30 -18 -3 3 1 11 10 18 8 7 15 25 15 41 0 55 -75 76 -100 28 -14 -26 14 -87
47 -102 19 -8 31 -7 56 7 43 25 57 44 57 78 0 90 -98 160 -175 124z"/>
<path d="M8604 6799 c-25 -28 -67 -49 -97 -49 -21 0 -57 -35 -57 -54 0 -3 18
-15 41 -27 41 -20 41 -20 63 -1 34 31 62 42 109 42 79 0 157 -75 157 -151 0
-79 -42 -120 -122 -118 l-43 2 43 6 c60 10 74 27 42 52 -37 29 -160 102 -165
98 -2 -2 -6 -16 -10 -30 -6 -25 -3 -28 64 -54 39 -16 69 -30 67 -32 -2 -2 -29
6 -60 18 -32 11 -60 19 -62 16 -12 -11 18 -85 43 -109 86 -82 232 -53 291 57
20 39 20 148 0 196 -40 91 -139 159 -234 159 -39 0 -55 -5 -70 -21z"/>
<path d="M8608 6649 c-25 -14 -22 -34 5 -46 12 -6 53 -34 90 -62 37 -29 72
-49 77 -46 15 9 12 72 -5 105 -8 16 -25 36 -37 44 -25 18 -104 21 -130 5z"/>
<path d="M8285 6431 c-107 -14 -170 -69 -170 -152 0 -43 4 -53 37 -86 31 -31
45 -38 77 -38 44 0 100 40 82 58 -6 6 -16 4 -26 -7 -26 -25 -91 -21 -120 8
-53 53 -39 116 34 153 46 23 71 23 123 -3 34 -18 68 -73 68 -113 0 -27 6 -34
53 -58 28 -15 56 -29 60 -31 4 -2 -12 27 -36 65 -25 37 -56 100 -70 138 -27
77 -27 77 -112 66z"/>
<path d="M9093 5306 c-60 -28 -83 -64 -83 -127 0 -33 6 -47 34 -75 19 -19 42
-34 52 -34 14 0 8 10 -24 39 -36 33 -42 44 -42 78 0 46 29 80 82 93 18 5 52
15 75 21 87 26 172 -29 241 -156 27 -50 44 -71 60 -73 28 -4 27 -2 -2 56 -28
55 -77 103 -163 161 -55 36 -68 41 -120 41 -40 0 -74 -8 -110 -24z"/>
<path d="M16288 15049 c-57 -50 -58 -50 -98 -39 -41 11 -41 11 -103 -41 -34
-29 -66 -56 -70 -59 -8 -7 148 -215 162 -215 4 0 26 17 50 37 l43 37 -16 47
c-22 64 -20 76 10 105 14 13 49 50 76 82 49 56 50 58 33 77 -10 11 -21 20 -24
20 -3 0 -32 -23 -63 -51z"/>
<path d="M16561 14454 c-24 -7 -45 -15 -47 -17 -2 -1 8 -39 20 -84 l23 -82
-29 -23 -30 -23 48 -49 49 -49 73 38 c39 21 72 42 72 46 0 16 -120 259 -127
258 -4 -1 -28 -7 -52 -15z"/>
<path d="M16460 14118 c-14 -11 -33 -26 -44 -33 -18 -13 -18 -17 -1 -134 10
-66 21 -124 24 -130 6 -9 104 9 117 22 2 2 10 47 17 100 l14 96 -51 50 -51 50
-25 -21z"/>
<path d="M16408 13103 c-13 -3 -29 -42 -58 -136 -23 -73 -45 -145 -51 -161 -7
-23 -5 -31 9 -42 27 -21 30 -18 60 44 32 68 36 72 84 72 59 0 68 7 56 41 -10
28 -9 46 8 152 l6 37 -48 -1 c-27 -1 -57 -3 -66 -6z"/>
<path d="M15690 11573 c-36 -63 -66 -118 -68 -122 -1 -4 31 -18 73 -30 41 -12
75 -27 75 -34 0 -7 -11 -53 -25 -102 -14 -50 -25 -95 -25 -101 0 -6 15 -17 34
-26 31 -15 35 -15 60 2 15 9 35 30 45 46 37 62 194 374 190 378 -2 2 -27 13
-56 25 l-51 20 -32 -80 c-34 -84 -37 -86 -100 -70 -19 6 -54 15 -77 21 l-41
10 34 86 c19 48 34 88 32 89 -2 2 -32 -49 -68 -112z"/>
<path d="M15525 11300 c-220 -348 -571 -779 -968 -1187 -106 -109 -181 -190
-167 -182 14 9 99 62 188 119 l164 103 71 -38 c40 -21 74 -39 76 -41 1 -1 -29
-41 -68 -87 -39 -46 -71 -89 -71 -94 0 -6 6 -16 14 -22 11 -9 57 37 234 231
196 215 220 244 205 256 -9 6 -22 12 -27 12 -6 0 -49 -43 -95 -95 -46 -52 -89
-95 -96 -95 -7 0 -32 9 -56 19 -24 11 -61 26 -82 35 l-37 15 191 245 c105 135
195 248 200 252 5 3 41 -20 79 -51 61 -49 69 -59 60 -75 -13 -25 5 -27 53 -7
25 11 56 49 136 171 57 86 101 159 98 162 -15 15 -37 -10 -91 -100 l-57 -96
-109 0 c-61 0 -110 1 -110 3 0 1 61 120 136 262 172 329 195 375 190 375 -2 0
-30 -40 -61 -90z"/>
<path d="M14200 9769 l-95 -90 94 62 94 61 56 -22 c31 -13 58 -24 60 -26 2 -2
-18 -40 -45 -85 -45 -78 -47 -82 -29 -95 10 -8 21 -14 24 -14 5 0 184 140 204
160 7 6 -3 39 -17 57 -1 2 -29 -2 -61 -7 l-58 -9 -63 49 c-35 28 -65 50 -66
50 -2 -1 -46 -41 -98 -91z"/>
</g>
</svg>
